<svg preserveAspectRatio="none" overflow="visible" style="display: block;" width="13" height="13" viewBox="0 0 13 13" fill="none" xmlns="http://www.w3.org/2000/svg">
<g id="LockIcon">
<path id="Vector" d="M10.2917 5.95833H2.70833C2.11002 5.95833 1.625 6.44336 1.625 7.04167V10.8333C1.625 11.4316 2.11002 11.9167 2.70833 11.9167H10.2917C10.89 11.9167 11.375 11.4316 11.375 10.8333V7.04167C11.375 6.44336 10.89 5.95833 10.2917 5.95833Z" stroke="#183153" stroke-opacity="0.38" stroke-width="1.08333" stroke-linecap="round" stroke-linejoin="round"/>
<path id="Vector_2" d="M3.79167 5.95833V3.79167C3.79167 3.07337 4.07701 2.3845 4.58492 1.87659C5.09283 1.36867 5.78171 1.08333 6.5 1.08333C7.21829 1.08333 7.90717 1.36867 8.41508 1.87659C8.92299 2.3845 9.20833 3.07337 9.20833 3.79167V5.95833" stroke="#183153" stroke-opacity="0.38" stroke-width="1.08333" stroke-linecap="round" stroke-linejoin="round"/>
</g>
</svg>
